<svg version="1.1" xmlns="http://www.w3.org/2000/svg" xmlns:xlink="http://www.w3.org/1999/xlink" width="30px" height="30px" viewBox="0,0,256,256"><g fill="#cd0f0f" fill-rule="nonzero" stroke="none" stroke-width="1" stroke-linecap="butt" stroke-linejoin="miter" stroke-miterlimit="10" stroke-dasharray="" stroke-dashoffset="0" font-family="none" font-weight="none" font-size="none" text-anchor="none" style="mix-blend-mode: normal"><g transform="scale(8.53333,8.53333)"><path d="M15,3c-6.627,0 -12,5.373 -12,12c0,6.627 5.373,12 12,12c6.627,0 12,-5.373 12,-12c0,-6.627 -5.373,-12 -12,-12zM14,7.06836v4.07422c-0.99052,0.25657 -1.83087,0.87259 -2.36719,1.71289l-3.86523,-1.25586c1.1437,-2.42705 3.46542,-4.18543 6.23242,-4.53125zM16,7.06836c2.767,0.34582 5.08873,2.1042 6.23242,4.53125l-3.86523,1.25586c-0.53632,-0.8403 -1.37667,-1.45632 -2.36719,-1.71289zM7.14453,13.5l3.87891,1.25977c-0.00489,0.08097 -0.02344,0.15803 -0.02344,0.24023c0,0.96518 0.35648,1.83824 0.92578,2.5293l-2.39453,3.29688c-1.55403,-1.4594 -2.53125,-3.52628 -2.53125,-5.82617c0,-0.51345 0.05208,-1.01344 0.14453,-1.5zM22.85547,13.5c0.09245,0.48656 0.14453,0.98655 0.14453,1.5c0,2.29989 -0.97722,4.36677 -2.53125,5.82617l-2.39453,-3.29687c0.5693,-0.69105 0.92578,-1.56412 0.92578,-2.5293c0,-0.0822 -0.01855,-0.15926 -0.02344,-0.24023zM14.94531,14.01172c0.03708,0.00207 0.07425,0.00207 0.11133,0c0.38122,0.02258 0.70519,0.25206 0.85351,0.58398c0.00819,0.03834 0.01862,0.07617 0.03125,0.11328c0.02914,0.09379 0.05859,0.18768 0.05859,0.29102c0,0.552 -0.448,1 -1,1c-0.552,0 -1,-0.448 -1,-1c0,-0.10267 0.02981,-0.1958 0.05859,-0.28906c0.01278,-0.03839 0.02321,-0.07753 0.03125,-0.11719c0.14888,-0.33171 0.47397,-0.56018 0.85547,-0.58203zM13.53711,18.71484c0.45412,0.17907 0.94518,0.28516 1.46289,0.28516c0.51771,0 1.00877,-0.10609 1.46289,-0.28516l2.39258,3.29492c-1.14384,0.6307 -2.45702,0.99023 -3.85547,0.99023c-1.39845,0 -2.71163,-0.35953 -3.85547,-0.99023z"></path></g></g></svg>